<?xml version="1.0" encoding="UTF-8"?>
<svg version="1.1" xmlns="http://www.w3.org/2000/svg" width="600" height="600">
<path d="M0 0 C198 0 396 0 600 0 C600 198 600 396 600 600 C402 600 204 600 0 600 C0 402 0 204 0 0 Z " fill="#E3E4E5" transform="translate(0,0)"/>
<path d="M0 0 C1.03390869 0.36488525 2.06781738 0.72977051 3.13305664 1.10571289 C34.97440241 12.42724759 68.55693507 32.80760414 86.875 62.25 C87.30377441 62.92659668 87.73254883 63.60319336 88.17431641 64.30029297 C103.59179411 88.77206346 113.78353291 114.44507074 117.92431641 143.1315918 C118.45327906 147.31764108 118.45327906 147.31764108 119.875 151.25 C119.545 176 119.215 200.75 118.875 226.25 C-16.755 226.25 -152.385 226.25 -292.125 226.25 C-292.125 132.12366566 -292.125 132.12366566 -284.5625 110.375 C-284.22589355 109.39088135 -283.88928711 108.4067627 -283.54248047 107.39282227 C-275.88707493 85.75071875 -265.12080331 66.59390062 -250.125 49.25 C-249.10019531 48.02410156 -249.10019531 48.02410156 -248.0546875 46.7734375 C-237.77036323 34.81933364 -225.44211355 25.55162397 -212.125 17.25 C-211.0525 16.56292969 -209.98 15.87585938 -208.875 15.16796875 C-195.8642939 7.23956972 -170.81016184 -6.7016552 -155.1328125 -3.421875 C-151.58662048 -2.23521152 -148.19141211 -0.69946635 -144.76171875 0.78515625 C-108.99032264 15.19361333 -66.96396373 15.81477291 -31.125 1.25 C-29.78715128 0.67275563 -28.45243161 0.08819996 -27.12109375 -0.50390625 C-26.17012817 -0.92663818 -26.17012817 -0.92663818 -25.19995117 -1.35791016 C-23.5022447 -2.12965686 -21.82062606 -2.93652802 -20.140625 -3.74609375 C-13.39161102 -5.992851 -6.42047033 -2.27295722 0 0 Z " fill="#B2B3B6" transform="translate(387.125,373.75)"/>
<path d="M0 0 C0.75333618 0.00281982 1.50667236 0.00563965 2.28283691 0.00854492 C34.38009028 0.18910581 64.72642133 10.18514685 89.375 31.3125 C90.13369385 31.95590332 90.13369385 31.95590332 90.90771484 32.61230469 C113.37325635 51.81155428 128.896332 77.45582419 135.375 106.3125 C135.67277344 107.41851562 135.97054688 108.52453125 136.27734375 109.6640625 C141.94860336 132.81952802 139.29569051 159.02348372 131.375 181.3125 C131.0553125 182.28574219 130.735625 183.25898438 130.40625 184.26171875 C124.16636357 202.68552134 113.24020299 217.96285051 100.375 232.3125 C99.65828125 233.11429688 98.9415625 233.91609375 98.203125 234.7421875 C91.70552365 241.60619494 84.09822465 246.93261058 76.375 252.3125 C75.446875 252.97507812 74.51875 253.63765625 73.5625 254.3203125 C53.27217171 268.11526131 27.58087311 273.72383814 3.41601562 273.57324219 C1.37600005 273.56250526 -0.66313547 273.57322424 -2.703125 273.5859375 C-14.34320461 273.59950117 -25.83817275 272.57222334 -37 269.125 C-37.70568115 268.90996826 -38.4113623 268.69493652 -39.13842773 268.47338867 C-74.24163039 257.39741989 -103.43455408 232.80594107 -120.625 200.3125 C-137.01273586 167.73125329 -141.05274478 130.15295072 -129.73461914 95.21044922 C-123.84527032 77.99806252 -115.60185577 62.09282054 -103.625 48.3125 C-102.91601562 47.48234375 -102.20703125 46.6521875 -101.4765625 45.796875 C-75.72497032 16.3406678 -38.98511863 -0.21023175 0 0 Z " fill="#B9BABD" transform="translate(298.625,87.6875)"/>
<path d="M0 0 C2.64 0.66 5.28 1.32 8 2 C8 85.82 8 169.64 8 256 C-23.02 256 -54.04 256 -86 256 C-87.4860891 253.0278218 -87.05688922 250.40554839 -86.98999023 247.09106445 C-86.9771701 246.38025223 -86.96434998 245.66944 -86.95114136 244.93708801 C-86.92275215 243.39068306 -86.89207499 241.84431884 -86.85940361 240.29799843 C-86.80825449 237.84702458 -86.76438719 235.39602144 -86.72267151 232.94487 C-86.60298227 225.97450798 -86.47217475 219.00438945 -86.33129883 212.03442383 C-86.24566678 207.77232094 -86.17037974 203.51013495 -86.10136604 199.24773216 C-86.07302261 197.62623908 -86.04071622 196.00481006 -86.00430107 194.38347816 C-85.95338933 192.10768065 -85.91562392 189.83199831 -85.88061523 187.5559082 C-85.85539291 186.26288284 -85.83017059 184.96985748 -85.80418396 183.63764954 C-86.01031392 179.80839972 -86.84426191 176.64483136 -88 173 C-88.46674852 170.39646059 -88.90206303 167.79937165 -89.3125 165.1875 C-93.38579553 141.03506576 -102.79685421 119.12082925 -115 98 C-110.97340604 97.07395198 -108.06279475 97.14964761 -104 98 C-104 99.32 -104 100.64 -104 102 C-101.525 101.505 -101.525 101.505 -99 101 C-99.226875 101.598125 -99.45375 102.19625 -99.6875 102.8125 C-99.8421875 103.8953125 -99.8421875 103.8953125 -100 105 C-98.64555699 106.77190909 -98.64555699 106.77190909 -97 108 C-96.67 107.34 -96.34 106.68 -96 106 C-96 106.66 -96 107.32 -96 108 C-95.34 108 -94.68 108 -94 108 C-93.23043864 105.65466049 -93.23043864 105.65466049 -93 103 C-94.20918882 101.12359581 -94.20918882 101.12359581 -96 100 C-96.66 100 -97.32 100 -98 100 C-98 99.34 -98 98.68 -98 98 C-97.34 98 -96.68 98 -96 98 C-95.67 96.35 -95.34 94.7 -95 93 C-93.515 93.495 -93.515 93.495 -92 94 C-92 94.66 -92 95.32 -92 96 C-90.515 96.495 -90.515 96.495 -89 97 C-87.65909241 97.65129797 -86.32407669 98.31513275 -85 99 C-84.34 97.68 -83.68 96.36 -83 95 C-82.01 95 -81.02 95 -80 95 C-79.34 94.34 -78.68 93.68 -78 93 C-77.67 93.66 -77.34 94.32 -77 95 C-77.33 95.66 -77.66 96.32 -78 97 C-78.66 97 -79.32 97 -80 97 C-80 97.66 -80 98.32 -80 99 C-77.525 98.505 -77.525 98.505 -75 98 C-74.67 98.99 -74.34 99.98 -74 101 C-72.35 99.35 -70.7 97.7 -69 96 C-66.03 96.99 -66.03 96.99 -63 98 C-63 97.01 -63 96.02 -63 95 C-60.69 94.67 -58.38 94.34 -56 94 C-55.67 94.99 -55.34 95.98 -55 97 C-54.01 96.34 -53.02 95.68 -52 95 C-52.33 93.02 -52.66 91.04 -53 89 C-52.01 88.34 -51.02 87.68 -50 87 C-49.01 85.515 -49.01 85.515 -48 84 C-47.34 84 -46.68 84 -46 84 C-45.505 82.02 -45.505 82.02 -45 80 C-45.99 80.66 -46.98 81.32 -48 82 C-48.17105988 75.84184423 -46.45884368 71.55912485 -44 66 C-43.34 66.33 -42.68 66.66 -42 67 C-42.33 67.66 -42.66 68.32 -43 69 C-40.69 69.33 -38.38 69.66 -36 70 C-36 68.68 -36 67.36 -36 66 C-35.34 66 -34.68 66 -34 66 C-33.01 64.02 -33.01 64.02 -32 62 C-30.35 62.33 -28.7 62.66 -27 63 C-26.67 61.35 -26.34 59.7 -26 58 C-26.99 58 -27.98 58 -29 58 C-29.495 55.03 -29.495 55.03 -30 52 C-29.01 51.34 -28.02 50.68 -27 50 C-26.34 49.01 -25.68 48.02 -25 47 C-24.34 47 -23.68 47 -23 47 C-22.01 46.34 -21.02 45.68 -20 45 C-21.32 43.35 -22.64 41.7 -24 40 C-23.01 39.01 -23.01 39.01 -22 38 C-21.34 38.33 -20.68 38.66 -20 39 C-19.855625 38.236875 -19.71125 37.47375 -19.5625 36.6875 C-19 34 -19 34 -18 31 C-18.27571139 28.99124558 -18.60235737 26.98821313 -19 25 C-19.66 25 -20.32 25 -21 25 C-21.495 23.515 -21.495 23.515 -22 22 C-21.01 22 -20.02 22 -19 22 C-17.32900023 21.68911632 -15.66128463 21.35919668 -14 21 C-14.495 23.475 -14.495 23.475 -15 26 C-14.34 26 -13.68 26 -13 26 C-13 25.34 -13 24.68 -13 24 C-12.34 24 -11.68 24 -11 24 C-11.33 26.64 -11.66 29.28 -12 32 C-10.515 32.99 -10.515 32.99 -9 34 C-8.67 34.99 -8.34 35.98 -8 37 C-7.7215625 35.8553125 -7.7215625 35.8553125 -7.4375 34.6875 C-5.42571852 30.92634332 -2.90713962 30.42077804 1 29 C1.495 28.505 1.495 28.505 2 28 C0.68 27.34 -0.64 26.68 -2 26 C-2 25.34 -2 24.68 -2 24 C-1.01 24 -0.02 24 1 24 C0.91291331 22.54054712 0.80473093 21.08234132 0.6875 19.625 C0.62949219 18.81289063 0.57148437 18.00078125 0.51171875 17.1640625 C0.17009472 14.62078662 0.17009472 14.62078662 -3 13 C-2.67 12.01 -2.34 11.02 -2 10 C-1.505 11.485 -1.505 11.485 -1 13 C-0.34 13 0.32 13 1 13 C1.04254356 11.00045254 1.04080783 8.99958364 1 7 C0.505 6.505 0.505 6.505 0 6 C-0.04080783 4.00041636 -0.04254356 1.99954746 0 0 Z M-17 27 C-17 27.66 -17 28.32 -17 29 C-16.34 28.67 -15.68 28.34 -15 28 C-15.66 27.67 -16.32 27.34 -17 27 Z M-11 38 C-11.33 39.65 -11.66 41.3 -12 43 C-11.01 43 -10.02 43 -9 43 C-8.67 42.01 -8.34 41.02 -8 40 C-8.33 39.34 -8.66 38.68 -9 38 C-9.66 38 -10.32 38 -11 38 Z M-105 103 C-104 105 -104 105 -104 105 Z " fill="#CBCCCE" transform="translate(592,344)"/>
<path d="M0 0 C3 2 3 2 3.6875 4.125 C3.790625 4.74375 3.89375 5.3625 4 6 C4.99 6 5.98 6 7 6 C7.33 5.34 7.66 4.68 8 4 C8 38.98 8 73.96 8 110 C7.34 109.67 6.68 109.34 6 109 C6.33 108.34 6.66 107.68 7 107 C6.34 107 5.68 107 5 107 C4.67 105.35 4.34 103.7 4 102 C3.34 102.66 2.68 103.32 2 104 C2.32326553 107.59679066 2.32326553 107.59679066 3 111 C2.38125 111.0825 1.7625 111.165 1.125 111.25 C-1.17972859 111.79394438 -1.17972859 111.79394438 -2.0625 114 C-2.5265625 114.99 -2.5265625 114.99 -3 116 C-3.99 116.33 -4.98 116.66 -6 117 C-6 115.68 -6 114.36 -6 113 C-5.34 113 -4.68 113 -4 113 C-4 112.34 -4 111.68 -4 111 C-3.34 110.67 -2.68 110.34 -2 110 C-2.33 109.01 -2.66 108.02 -3 107 C-2.5625 104.8125 -2.5625 104.8125 -2 103 C-3.485 103.495 -3.485 103.495 -5 104 C-5.495 105.485 -5.495 105.485 -6 107 C-7.2065625 107.4021875 -7.2065625 107.4021875 -8.4375 107.8125 C-11.33026976 108.80353159 -11.33026976 108.80353159 -12.3125 112.125 C-12.539375 113.07375 -12.76625 114.0225 -13 115 C-13.99 114.01 -13.99 114.01 -15 113 C-14.34 111.68 -13.68 110.36 -13 109 C-13.99 108.67 -14.98 108.34 -16 108 C-15.34 106.68 -14.68 105.36 -14 104 C-14.66 104 -15.32 104 -16 104 C-16.99 107.63 -17.98 111.26 -19 115 C-19.66 115 -20.32 115 -21 115 C-21.33 115.66 -21.66 116.32 -22 117 C-22.66 117 -23.32 117 -24 117 C-23.505 115.02 -23.505 115.02 -23 113 C-25.97 113.99 -25.97 113.99 -29 115 C-28.67 116.32 -28.34 117.64 -28 119 C-29.32 119 -30.64 119 -32 119 C-32.33 119.66 -32.66 120.32 -33 121 C-34.32 120.34 -35.64 119.68 -37 119 C-37 117.35 -37 115.7 -37 114 C-38.0828125 114.99 -38.0828125 114.99 -39.1875 116 C-42.32871654 118.23375399 -43.28732734 118.27845045 -47 118 C-48.67343448 118.29749946 -50.34305915 118.62127066 -52 119 C-52 118.34 -52 117.68 -52 117 C-54.97 117.495 -54.97 117.495 -58 118 C-58.33 117.34 -58.66 116.68 -59 116 C-58.175 115.443125 -57.35 114.88625 -56.5 114.3125 C-53.7254586 112.25072867 -53.7254586 112.25072867 -53.6875 109.25 C-53.790625 108.5075 -53.89375 107.765 -54 107 C-56.97 107.99 -56.97 107.99 -60 109 C-60.33 108.34 -60.66 107.68 -61 107 C-61.99 106.67 -62.98 106.34 -64 106 C-63.34 105.01 -62.68 104.02 -62 103 C-62.825 102.38125 -63.65 101.7625 -64.5 101.125 C-65.7375 100.073125 -65.7375 100.073125 -67 99 C-67 98.34 -67 97.68 -67 97 C-66.34 97 -65.68 97 -65 97 C-64.67 96.01 -64.34 95.02 -64 94 C-62.515 93.505 -62.515 93.505 -61 93 C-58.69639239 90.25525964 -58.69639239 90.25525964 -59.3125 87.5625 C-59.91973118 85.06958188 -59.91973118 85.06958188 -60.8125 83.0625 C-61.12384631 79.63769063 -58.97909362 77.63879149 -57 75 C-58.32 73.68 -59.64 72.36 -61 71 C-60.67 70.01 -60.34 69.02 -60 68 C-59.34 68.33 -58.68 68.66 -58 69 C-58 68.34 -58 67.68 -58 67 C-57.34 67 -56.68 67 -56 67 C-55.505 66.01 -55.505 66.01 -55 65 C-54.34 65 -53.68 65 -53 65 C-53 64.34 -53 63.68 -53 63 C-53.66 63 -54.32 63 -55 63 C-54.67 62.01 -54.34 61.02 -54 60 C-51.9375 59.3125 -51.9375 59.3125 -50 59 C-50 58.34 -50 57.68 -50 57 C-50.66 57 -51.32 57 -52 57 C-52 55.35 -52 53.7 -52 52 C-51.34 52 -50.68 52 -50 52 C-49.67 51.34 -49.34 50.68 -49 50 C-47.68 51.32 -46.36 52.64 -45 54 C-44.01 53.01 -43.02 52.02 -42 51 C-42.99 50.01 -43.98 49.02 -45 48 C-43.68 48 -42.36 48 -41 48 C-40.67 48.66 -40.34 49.32 -40 50 C-36.72653393 46.90347804 -34.02490044 44.04980088 -32 40 C-32 39.01 -32 38.02 -32 37 C-32 36.01 -32 35.02 -32 34 C-31.01 33.67 -30.02 33.34 -29 33 C-29.33 32.34 -29.66 31.68 -30 31 C-30.99 31.66 -31.98 32.32 -33 33 C-33.495 31.02 -33.495 31.02 -34 29 C-33.01 28.67 -32.02 28.34 -31 28 C-29.79117904 25.99983534 -29.79117904 25.99983534 -29 24 C-28.01 24 -27.02 24 -26 24 C-26.53725895 20.62294375 -27.11064623 17.303314 -28 14 C-27.01 13.34 -26.02 12.68 -25 12 C-23.875 15.75 -23.875 15.75 -25 18 C-22.36 18.33 -19.72 18.66 -17 19 C-17.33 17.35 -17.66 15.7 -18 14 C-16 14 -14 14 -12 14 C-12 11.69 -12 9.38 -12 7 C-11.01 7.33 -10.02 7.66 -9 8 C-9 7.34 -9 6.68 -9 6 C-7.04109119 4.60699818 -5.0360882 3.27754554 -3 2 C-2.01 1.34 -1.02 0.68 0 0 Z M-35 112 C-35.33 112.66 -35.66 113.32 -36 114 C-35.34 114 -34.68 114 -34 114 C-34.33 113.34 -34.66 112.68 -35 112 Z " fill="#D5D6D7" transform="translate(592,229)"/>
<path d="M0 0 C1.9375 0.625 1.9375 0.625 4 2 C4.75 5.125 4.75 5.125 5 8 C5.66 7.34 6.32 6.68 7 6 C7.99 6 8.98 6 10 6 C10.33 5.34 10.66 4.68 11 4 C11 4.66 11 5.32 11 6 C11.66 6.33 12.32 6.66 13 7 C13.37078652 12.56179775 13.37078652 12.56179775 11.625 14.625 C11.08875 15.07875 10.5525 15.5325 10 16 C8.82425289 18.09989652 8.82425289 18.09989652 8 20 C8 19.34 8 18.68 8 18 C7.34 18 6.68 18 6 18 C6.66 19.98 7.32 21.96 8 24 C8.99 23.67 9.98 23.34 11 23 C11 22.34 11 21.68 11 21 C11.66 21 12.32 21 13 21 C13 21.66 13 22.32 13 23 C14.32 23 15.64 23 17 23 C17.33 21.68 17.66 20.36 18 19 C18.66 19 19.32 19 20 19 C20.185625 19.9590625 20.185625 19.9590625 20.375 20.9375 C20.58125 21.618125 20.7875 22.29875 21 23 C21.66 23.33 22.32 23.66 23 24 C22.48805455 26.04778181 21.98043101 28.05870698 21.3125 30.0625 C20.72287634 32.32110278 20.72287634 32.32110278 23 35 C23 37 23 39 23 41 C23.66 41.99 24.32 42.98 25 44 C22.69 44 20.38 44 18 44 C18 43.34 18 42.68 18 42 C17.01 42.33 16.02 42.66 15 43 C14.505 41.02 14.505 41.02 14 39 C12.68 38.67 11.36 38.34 10 38 C9.67 39.32 9.34 40.64 9 42 C8.0409375 42.1546875 8.0409375 42.1546875 7.0625 42.3125 C6.381875 42.539375 5.70125 42.76625 5 43 C3.84188612 45.94729537 3.84188612 45.94729537 4 49 C3.01 49 2.02 49 1 49 C1 50.98 1 52.96 1 55 C-1.4375 54.1875 -1.4375 54.1875 -4 53 C-5 50 -5 50 -5 48 C-6.45833358 46.37485532 -6.45833358 46.37485532 -8 45 C-7.34 43.68 -6.68 42.36 -6 41 C-6.598125 41.185625 -7.19625 41.37125 -7.8125 41.5625 C-10 42 -10 42 -13 41 C-13.33 40.34 -13.66 39.68 -14 39 C-16.02463255 38.34786708 -16.02463255 38.34786708 -18 38 C-18 38.99 -18 39.98 -18 41 C-18.66 41 -19.32 41 -20 41 C-20.33 40.01 -20.66 39.02 -21 38 C-20.67 37.34 -20.34 36.68 -20 36 C-20.99 36 -21.98 36 -23 36 C-23.66 35.34 -24.32 34.68 -25 34 C-25.928125 34.2475 -25.928125 34.2475 -26.875 34.5 C-29.62488363 35.14703144 -30.55668605 34.26106527 -33 33 C-34.485 33.495 -34.485 33.495 -36 34 C-35.835 33.360625 -35.67 32.72125 -35.5 32.0625 C-34.96073333 30.19173179 -34.96073333 30.19173179 -35 29 C-35.99 29 -36.98 29 -38 29 C-38 26 -38 26 -37 25 C-36.67 24.34 -36.34 23.68 -36 23 C-35.01 23 -34.02 23 -33 23 C-32.67 22.34 -32.34 21.68 -32 21 C-31.01 21.33 -30.02 21.66 -29 22 C-28.34 20.68 -27.68 19.36 -27 18 C-25.02 18.33 -23.04 18.66 -21 19 C-21 18.01 -21 17.02 -21 16 C-21.66 16 -22.32 16 -23 16 C-25.125 11.375 -25.125 11.375 -24 8 C-21.6875 6.6875 -21.6875 6.6875 -19 6 C-16.6875 6.875 -16.6875 6.875 -15 8 C-14.67 7.34 -14.34 6.68 -14 6 C-12 4 -12 4 -8.0625 3.8125 C-7.01255859 3.86857422 -7.01255859 3.86857422 -5.94140625 3.92578125 C-3.80089605 4.00761162 -2.02960561 3.6765352 0 3 C0 2.01 0 1.02 0 0 Z " fill="#D5D6D7" transform="translate(517,337)"/>
<path d="M0 0 C0.99 0 1.98 0 3 0 C3 0.99 3 1.98 3 3 C5.31 3.33 7.62 3.66 10 4 C10 4.66 10 5.32 10 6 C10.66 6 11.32 6 12 6 C14 11.625 14 11.625 14 15 C12.35 15.33 10.7 15.66 9 16 C9 14.68 9 13.36 9 12 C8.34 12 7.68 12 7 12 C7.33 13.32 7.66 14.64 8 16 C6.68 16.99 5.36 17.98 4 19 C3.67 18.34 3.34 17.68 3 17 C1.68 17 0.36 17 -1 17 C-1.33 17.66 -1.66 18.32 -2 19 C-2.66 18.67 -3.32 18.34 -4 18 C-4 4 -4 4 0 0 Z " fill="#D9DADB" transform="translate(473,327)"/>
<path d="M0 0 C0.61875 0.185625 1.2375 0.37125 1.875 0.5625 C4.04160178 1.23686176 4.04160178 1.23686176 6 0 C6 0.66 6 1.32 6 2 C6.99 2.33 7.98 2.66 9 3 C7.68 4.32 6.36 5.64 5 7 C5.33 7.33 5.66 7.66 6 8 C6.61875 7.835 7.2375 7.67 7.875 7.5 C10 7 10 7 13 8 C12.505 8.61875 12.01 9.2375 11.5 9.875 C9.80777227 11.83880904 9.80777227 11.83880904 10 14 C9.01 14 8.02 14 7 14 C6.71125 14.639375 6.4225 15.27875 6.125 15.9375 C4.53238899 18.85728685 1.9156722 19.5421639 -1 21 C-1 21.99 -1 22.98 -1 24 C-2.98 24 -4.96 24 -7 24 C-6.67 21.69 -6.34 19.38 -6 17 C-4.35 16.34 -2.7 15.68 -1 15 C-1.7425 14.3503125 -1.7425 14.3503125 -2.5 13.6875 C-4 12 -4 12 -4 9 C-3.34 8.38125 -2.68 7.7625 -2 7.125 C0.27138797 5.14922703 0.27138797 5.14922703 0.25 2.25 C0.1675 1.5075 0.085 0.765 0 0 Z " fill="#DADBDD" transform="translate(432,343)"/>
<path d="M0 0 C1.32 0.66 2.64 1.32 4 2 C3.34 2 2.68 2 2 2 C2 2.66 2 3.32 2 4 C3.32 4.66 4.64 5.32 6 6 C5.071875 6.12375 5.071875 6.12375 4.125 6.25 C1.85567174 6.81927015 1.85567174 6.81927015 0.6875 8.875 C-0.27994848 11.14831646 -0.27994848 11.14831646 1 14 C0.0625 16.6875 0.0625 16.6875 -1 19 C-2.65 19 -4.3 19 -6 19 C-6 17.35 -6 15.7 -6 14 C-8.64 13.67 -11.28 13.34 -14 13 C-13.67 11.02 -13.34 9.04 -13 7 C-11 8 -9 9 -7 10 C-7 9.34 -7 8.68 -7 8 C-7.66 8 -8.32 8 -9 8 C-8.67 7.01 -8.34 6.02 -8 5 C-6.35 4.67 -4.7 4.34 -3 4 C-2.67 4.66 -2.34 5.32 -2 6 C-1.34 5.34 -0.68 4.68 0 4 C0 2.68 0 1.36 0 0 Z " fill="#D4D5D7" transform="translate(497,383)"/>
<path d="M0 0 C0.66 0 1.32 0 2 0 C2 0.66 2 1.32 2 2 C2.66 2 3.32 2 4 2 C4.99 3.485 4.99 3.485 6 5 C6.86625 4.6596875 6.86625 4.6596875 7.75 4.3125 C10 4 10 4 12.1875 5.0625 C14.55599215 7.59433644 14.69836931 9.6066547 15 13 C14.01 13.33 13.02 13.66 12 14 C11.34 13.34 10.68 12.68 10 12 C8.02463255 12.34786708 8.02463255 12.34786708 6 13 C3.16032769 13 0.76264289 12.59732819 -2 12 C-2.125 8.625 -2.125 8.625 -2 5 C-1.34 4.34 -0.68 3.68 0 3 C0 2.01 0 1.02 0 0 Z " fill="#D1D2D4" transform="translate(531,397)"/>
<path d="M0 0 C0 0.66 0 1.32 0 2 C-0.763125 2.144375 -1.52625 2.28875 -2.3125 2.4375 C-5.08172908 2.9632594 -5.08172908 2.9632594 -8 4 C-8.33 4.66 -8.66 5.32 -9 6 C-9.66 6 -10.32 6 -11 6 C-12.15811388 8.94729537 -12.15811388 8.94729537 -12 12 C-12.66 12 -13.32 12 -14 12 C-14 13.32 -14 14.64 -14 16 C-18.77609498 14.35821735 -22.79382904 11.73453298 -27 9 C-26.34 8.566875 -25.68 8.13375 -25 7.6875 C-24.01 6.8521875 -24.01 6.8521875 -23 6 C-23 5.01 -23 4.02 -23 3 C-22.01 3.33 -21.02 3.66 -20 4 C-16.89448334 4 -15.64738916 3.4606285 -13 2 C-13 2.66 -13 3.32 -13 4 C-11.02 3.34 -9.04 2.68 -7 2 C-7 1.34 -7 0.68 -7 0 C-4.3333581 -1.33332095 -2.83319697 -0.67102033 0 0 Z " fill="#D8D9DB" transform="translate(447,380)"/>
<path d="M0 0 C1.32 0.33 2.64 0.66 4 1 C4 1.66 4 2.32 4 3 C3.01 3 2.02 3 1 3 C1.66 3.94875 2.32 4.8975 3 5.875 C5 9 5 9 5 11 C2.69 11 0.38 11 -2 11 C-2 11.66 -2 12.32 -2 13 C-0.35 13.33 1.3 13.66 3 14 C-0.62326739 15.2077558 -1.64146369 14.54311128 -5 13 C-5.33 13.99 -5.66 14.98 -6 16 C-7.32 16 -8.64 16 -10 16 C-10.33 16.66 -10.66 17.32 -11 18 C-10.67 16.35 -10.34 14.7 -10 13 C-10.66 12.67 -11.32 12.34 -12 12 C-11.67 11.01 -11.34 10.02 -11 9 C-10.34 9.33 -9.68 9.66 -9 10 C-8.67 9.34 -8.34 8.68 -8 8 C-6.68 8.33 -5.36 8.66 -4 9 C-4 8.34 -4 7.68 -4 7 C-3.34 7 -2.68 7 -2 7 C-1.34 4.69 -0.68 2.38 0 0 Z M5 7 C5.99 7.495 5.99 7.495 7 8 C6.01 8.495 6.01 8.495 5 9 C5 8.34 5 7.68 5 7 Z " fill="#D1D2D4" transform="translate(514,401)"/>
<path d="M0 0 C1.69141656 0.08963062 3.37959602 0.24577676 5.0625 0.4375 C6.44115234 0.59025391 6.44115234 0.59025391 7.84765625 0.74609375 C8.55792969 0.82988281 9.26820313 0.91367187 10 1 C10 2.32 10 3.64 10 5 C11.65 4.67 13.3 4.34 15 4 C14 7 14 7 12 8 C11.01 9.485 11.01 9.485 10 11 C10.66 12.32 11.32 13.64 12 15 C11.01 15.66 10.02 16.32 9 17 C8.67 16.01 8.34 15.02 8 14 C7.4225 13.46375 6.845 12.9275 6.25 12.375 C3.06126737 9.00911556 1.13268169 5.09055341 -1 1 C-0.67 0.67 -0.34 0.34 0 0 Z M9 6 C10 8 10 8 10 8 Z " fill="#D2D3D5" transform="translate(478,441)"/>
<path d="M0 0 C0.0825 0.61875 0.165 1.2375 0.25 1.875 C0.81258459 4.18437567 0.81258459 4.18437567 3.0625 5.25 C3.701875 5.4975 4.34125 5.745 5 6 C5 6.66 5 7.32 5 8 C5.99 8 6.98 8 8 8 C8 6.68 8 5.36 8 4 C8.66 4 9.32 4 10 4 C9.67 3.01 9.34 2.02 9 1 C9.99 1.33 10.98 1.66 12 2 C12 2.99 12 3.98 12 5 C13.32 5.66 14.64 6.32 16 7 C15.67 7.99 15.34 8.98 15 10 C13 9 13 9 10 7 C10 7.99 10 8.98 10 10 C10.66 10.66 11.32 11.32 12 12 C11.34 12 10.68 12 10 12 C9.67 12.66 9.34 13.32 9 14 C5.04 10.37 1.08 6.74 -3 3 C-2.01 2.01 -1.02 1.02 0 0 Z " fill="#D4D5D7" transform="translate(447,402)"/>
<path d="M0 0 C0.99 0.33 1.98 0.66 3 1 C2.67 1.66 2.34 2.32 2 3 C3.65 3 5.3 3 7 3 C7 3.99 7 4.98 7 6 C5.02 6.99 3.04 7.98 1 9 C0.67 7.68 0.34 6.36 0 5 C-0.99 6.485 -0.99 6.485 -2 8 C-2.66 8 -3.32 8 -4 8 C-4.66 9.32 -5.32 10.64 -6 12 C-6.66 12 -7.32 12 -8 12 C-6.58803709 6.15043937 -5.03437963 3.62475334 0 0 Z " fill="#D4D5D7" transform="translate(492,414)"/>
<path d="M0 0 C0.66 0.33 1.32 0.66 2 1 C1.505 1.928125 1.01 2.85625 0.5 3.8125 C-1.21289852 6.86527516 -1.21289852 6.86527516 -1 10 C-2 11 -3 12 -4 13 C-4.71447643 15.10332891 -4.71447643 15.10332891 -5 17 C-6.65 17 -8.3 17 -10 17 C-10.25 10.375 -10.25 10.375 -8 7 C-6.68 7 -5.36 7 -4 7 C-3.525625 6.030625 -3.05125 5.06125 -2.5625 4.0625 C-1 1 -1 1 0 0 Z " fill="#D9DADC" transform="translate(493,296)"/>
<path d="M0 0 C0.99 0.33 1.98 0.66 3 1 C3.75 2.9375 3.75 2.9375 4 5 C3.67 5.66 3.34 6.32 3 7 C3.66 7.66 4.32 8.32 5 9 C4.34 9 3.68 9 3 9 C2.67 9.66 2.34 10.32 2 11 C-1 9 -1 9 -1.8125 6.0625 C-2 3 -2 3 0 0 Z M5 4 C6.32 4.66 7.64 5.32 9 6 C8.67 6.66 8.34 7.32 8 8 C6.68 7.67 5.36 7.34 4 7 C4.33 6.01 4.66 5.02 5 4 Z " fill="#DBDCDD" transform="translate(576,182)"/>
<path d="M0 0 C0.3125 3.25 0.3125 3.25 0 7 C-2.5 9.4375 -2.5 9.4375 -5 11 C-5 10.34 -5 9.68 -5 9 C-5.66 8.67 -6.32 8.34 -7 8 C-7 5 -7 5 -4.625 2.3125 C-2 0 -2 0 0 0 Z " fill="#A7A8AB" transform="translate(505,551)"/>
<path d="M0 0 C-0.99 0.495 -0.99 0.495 -2 1 C-1.67 2.98 -1.34 4.96 -1 7 C-1.99 7.66 -2.98 8.32 -4 9 C-6.29379749 5.55930376 -7 4.27709699 -7 0 C-3.98968256 -0.93423645 -3.13349732 -1.04449911 0 0 Z " fill="#DADBDD" transform="translate(442,364)"/>
<path d="M0 0 C2 1 2 1 2 1 Z M-1 1 C1 3 1 3 1 5 C2.32 5.33 3.64 5.66 5 6 C5 5.01 5 4.02 5 3 C5.66 3.33 6.32 3.66 7 4 C6.67 4.99 6.34 5.98 6 7 C5.01 7.33 4.02 7.66 3 8 C1.78130071 10.50447516 1.78130071 10.50447516 1 13 C0.34 12.67 -0.32 12.34 -1 12 C-1.38218767 10.34385343 -1.71395102 8.67542976 -2 7 C-2.33 6.34 -2.66 5.68 -3 5 C-2.0625 2.875 -2.0625 2.875 -1 1 Z " fill="#D8D9DB" transform="translate(484,345)"/>
<path d="M0 0 C1.1446875 0.3403125 1.1446875 0.3403125 2.3125 0.6875 C1.6525 2.9975 0.9925 5.3075 0.3125 7.6875 C-1.3375 7.6875 -2.9875 7.6875 -4.6875 7.6875 C-5.375 5.375 -5.375 5.375 -5.6875 2.6875 C-4.0011022 -0.12316299 -3.27764429 -0.38112143 0 0 Z M-3.6875 2.6875 C-3.3575 3.3475 -3.0275 4.0075 -2.6875 4.6875 C-2.3575 4.0275 -2.0275 3.3675 -1.6875 2.6875 C-2.3475 2.6875 -3.0075 2.6875 -3.6875 2.6875 Z " fill="#D6D7D8" transform="translate(464.6875,392.3125)"/>
<path d="M0 0 C1 3 1 3 -0.1875 5.5625 C-2.02001957 8.02692286 -3.17445421 8.92824125 -6 10 C-6.33 8.68 -6.66 7.36 -7 6 C-5.68 5.34 -4.36 4.68 -3 4 C-3 3.34 -3 2.68 -3 2 C-2.01 1.34 -1.02 0.68 0 0 Z " fill="#D1D2D4" transform="translate(496,429)"/>
<path d="M0 0 C2 2 2 2 2 5 C0.35 5.66 -1.3 6.32 -3 7 C-3.1875 4.625 -3.1875 4.625 -3 2 C-2.01 1.34 -1.02 0.68 0 0 Z M-6 7 C-5.01 7 -4.02 7 -3 7 C-3 7.99 -3 8.98 -3 10 C-4.32 9.67 -5.64 9.34 -7 9 C-6.67 8.34 -6.34 7.68 -6 7 Z " fill="#D6D7D9" transform="translate(513,306)"/>
<path d="M0 0 C0.33 0.66 0.66 1.32 1 2 C1.66 2 2.32 2 3 2 C3.33 1.34 3.66 0.68 4 0 C4 1.32 4 2.64 4 4 C5.32 3.67 6.64 3.34 8 3 C6.84826645 5.46800047 5.95216435 7.04783565 4 9 C0 3.375 0 3.375 0 0 Z " fill="#DADBDC" transform="translate(491,275)"/>
<path d="M0 0 C0 2.64 0 5.28 0 8 C-1.32 8 -2.64 8 -4 8 C-3.67 6.68 -3.34 5.36 -3 4 C-3.99 3.67 -4.98 3.34 -6 3 C-3.375 0 -3.375 0 0 0 Z " fill="#D6D7D8" transform="translate(508,320)"/>
<path d="M0 0 C0.66 0.66 1.32 1.32 2 2 C1.67 2.66 1.34 3.32 1 4 C1.66 4.33 2.32 4.66 3 5 C2.34 5 1.68 5 1 5 C0.67 5.99 0.34 6.98 0 8 C-0.33 7.01 -0.66 6.02 -1 5 C-3.01508358 4.26676204 -3.01508358 4.26676204 -5 4 C-4.34 4 -3.68 4 -3 4 C-2.67 3.01 -2.34 2.02 -2 1 C-1.34 0.67 -0.68 0.34 0 0 Z " fill="#D2D3D4" transform="translate(539,419)"/>
<path d="M0 0 C1.32 0.66 2.64 1.32 4 2 C3.25 4.9375 3.25 4.9375 2 8 C-0.125 8.875 -0.125 8.875 -2 9 C-2.20140476 5.37471432 -1.85776765 3.13498292 0 0 Z " fill="#D8D9DA" transform="translate(525,255)"/>
<path d="M0 0 C0.99 0.33 1.98 0.66 3 1 C3 2.65 3 4.3 3 6 C2.01 6.33 1.02 6.66 0 7 C-0.99 6.01 -1.98 5.02 -3 4 C-2.67 3.01 -2.34 2.02 -2 1 C-1.34 0.67 -0.68 0.34 0 0 Z " fill="#D2D3D5" transform="translate(569,352)"/>
<path d="M0 0 C0.99 0 1.98 0 3 0 C3 0.66 3 1.32 3 2 C2.01 1.67 1.02 1.34 0 1 C0 0.67 0 0.34 0 0 Z M1 3 C0.38125 3.433125 -0.2375 3.86625 -0.875 4.3125 C-3.2197245 5.99740483 -3.2197245 5.99740483 -5 9 C-5 8.34 -5 7.68 -5 7 C-5.99 7.33 -6.98 7.66 -8 8 C-8 6 -8 6 -6.75 4.4375 C-4.12157578 2.27843725 -2.11876343 1.44061828 1 3 Z " fill="#D8D9DB" transform="translate(531,286)"/>
<path d="M0 0 C2 3 2 3 1.625 5.6875 C1.41875 6.450625 1.2125 7.21375 1 8 C-0.32 8.33 -1.64 8.66 -3 9 C-2.4140625 2.84765625 -2.4140625 2.84765625 -2 1 C-1.34 0.67 -0.68 0.34 0 0 Z " fill="#DBDCDD" transform="translate(558,172)"/>
<path d="M0 0 C-2.31 1.65 -4.62 3.3 -7 5 C-7 4.34 -7 3.68 -7 3 C-7.99 3.33 -8.98 3.66 -10 4 C-10.66 3.34 -11.32 2.68 -12 2 C-10.56656 1.46809459 -9.12804633 0.94984742 -7.6875 0.4375 C-6.48673828 0.00244141 -6.48673828 0.00244141 -5.26171875 -0.44140625 C-3 -1 -3 -1 0 0 Z " fill="#D2D3D5" transform="translate(507,406)"/>
<path d="M0 0 C0.66 1.32 1.32 2.64 2 4 C1.34 4.66 0.68 5.32 0 6 C-1 3 -1 3 0 0 Z M5 -1 C5.99 -0.34 6.98 0.32 8 1 C6.02 1.66 4.04 2.32 2 3 C2.33 2.01 2.66 1.02 3 0 C3.66 -0.33 4.32 -0.66 5 -1 Z M-3 5 C-2.01 5.495 -2.01 5.495 -1 6 C-1.66 6.66 -2.32 7.32 -3 8 C-3 7.01 -3 6.02 -3 5 Z " fill="#D6D7D8" transform="translate(483,383)"/>
<path d="M0 0 C1.98 0.99 3.96 1.98 6 3 C6 3.99 6 4.98 6 6 C5.01 6.33 4.02 6.66 3 7 C0 3.375 0 3.375 0 0 Z " fill="#D9DADC" transform="translate(507,280)"/>
<path d="M0 0 C0.99 0.33 1.98 0.66 3 1 C3 2.65 3 4.3 3 6 C2.01 6.33 1.02 6.66 0 7 C0 6.34 0 5.68 0 5 C-0.99 5.33 -1.98 5.66 -3 6 C-2.67 5.01 -2.34 4.02 -2 3 C-1.34 3.33 -0.68 3.66 0 4 C-0.33 3.01 -0.66 2.02 -1 1 C-0.67 0.67 -0.34 0.34 0 0 Z " fill="#DADBDC" transform="translate(501,262)"/>
<path d="M0 0 C2.475 0.495 2.475 0.495 5 1 C4.67 1.99 4.34 2.98 4 4 C4.99 5.485 4.99 5.485 6 7 C5.01 7.33 4.02 7.66 3 8 C2.67 7.34 2.34 6.68 2 6 C1.34 6 0.68 6 0 6 C0 4.02 0 2.04 0 0 Z " fill="#D3D4D5" transform="translate(491,376)"/>
<path d="M0 0 C1.98 0.495 1.98 0.495 4 1 C2.88820837 4.33537489 1.52588702 5.63707344 -1 8 C-0.67 5.36 -0.34 2.72 0 0 Z " fill="#D9DADC" transform="translate(577,167)"/>
<path d="M0 0 C2.15377564 2.62198774 3.40072174 4.64404172 4 8 C3.01 8.66 2.02 9.32 1 10 C-0.80411967 7.24075815 -1.0127245 6.11027897 -0.625 2.75 C-0.41875 1.8425 -0.2125 0.935 0 0 Z " fill="#DDDEDF" transform="translate(568,141)"/>
<path d="M0 0 C0.33 0 0.66 0 1 0 C1.36625971 4.51720311 1.36625971 4.51720311 -0.375 6.8125 C-2 8 -2 8 -4 8 C-4 6.35 -4 4.7 -4 3 C-2.68 2.67 -1.36 2.34 0 2 C0 1.34 0 0.68 0 0 Z " fill="#D7D8DA" transform="translate(565,232)"/>
<path d="M0 0 C1.5625 1.25 1.5625 1.25 3 3 C2.6875 5.1875 2.6875 5.1875 2 7 C1.01 7 0.02 7 -1 7 C-0.67 5.35 -0.34 3.7 0 2 C-0.99 1.67 -1.98 1.34 -3 1 C-2.01 0.67 -1.02 0.34 0 0 Z " fill="#D0D1D2" transform="translate(549,391)"/>
<path d="M0 0 C2.125 0.375 2.125 0.375 4 1 C3.34 2.32 2.68 3.64 2 5 C0.02 5 -1.96 5 -4 5 C-2 2 -2 2 0 0 Z " fill="#D7D8DA" transform="translate(507,273)"/>
<path d="M0 0 C0.99 0.33 1.98 0.66 3 1 C2.34 1 1.68 1 1 1 C1.66 2.32 2.32 3.64 3 5 C2.01 5.66 1.02 6.32 0 7 C-0.66 5.68 -1.32 4.36 -2 3 C-1.34 2.01 -0.68 1.02 0 0 Z " fill="#DADBDD" transform="translate(425,325)"/>
<path d="M0 0 C1.32 0 2.64 0 4 0 C4.33 0.99 4.66 1.98 5 3 C4.01 4.485 4.01 4.485 3 6 C0 2.25 0 2.25 0 0 Z M0 5 C0.99 5.495 0.99 5.495 2 6 C1.01 6.495 1.01 6.495 0 7 C0 6.34 0 5.68 0 5 Z " fill="#D8D9DB" transform="translate(496,322)"/>
<path d="M0 0 C0.66 0 1.32 0 2 0 C2.185625 1.2065625 2.185625 1.2065625 2.375 2.4375 C2.58125 3.283125 2.7875 4.12875 3 5 C3.66 5.33 4.32 5.66 5 6 C4.01 6.495 4.01 6.495 3 7 C0 5 0 5 -0.75 2.9375 C-0.8325 2.298125 -0.915 1.65875 -1 1 C-0.67 0.67 -0.34 0.34 0 0 Z " fill="#D8D9DA" transform="translate(536,269)"/>
<path d="M0 0 C1.0625 1.8125 1.0625 1.8125 2 4 C1.67 4.99 1.34 5.98 1 7 C0.34 6.67 -0.32 6.34 -1 6 C-1 5.34 -1 4.68 -1 4 C-1.66 4 -2.32 4 -3 4 C-3 3.34 -3 2.68 -3 2 C-2.01 1.34 -1.02 0.68 0 0 Z " fill="#DADADC" transform="translate(500,250)"/>
<path d="M0 0 C0.99 0.99 1.98 1.98 3 3 C2.34 4.65 1.68 6.3 1 8 C0.34 8 -0.32 8 -1 8 C-1.125 2.25 -1.125 2.25 0 0 Z " fill="#DBDCDD" transform="translate(538,221)"/>
<path d="M0 0 C2.475 0.495 2.475 0.495 5 1 C4.67 2.32 4.34 3.64 4 5 C2.68 4.67 1.36 4.34 0 4 C0 2.68 0 1.36 0 0 Z " fill="#D9DADC" transform="translate(547,202)"/>
<path d="M0 0 C0.99 0.33 1.98 0.66 3 1 C3 1.66 3 2.32 3 3 C2.34 3 1.68 3 1 3 C0.67 4.32 0.34 5.64 0 7 C-0.66 7 -1.32 7 -2 7 C-1.34 4.69 -0.68 2.38 0 0 Z " fill="#A4A6A9" transform="translate(499,527)"/>
<path d="M0 0 C0.99 0.33 1.98 0.66 3 1 C2.1875 3.4375 2.1875 3.4375 1 6 C0.01 6.33 -0.98 6.66 -2 7 C-2.125 4.625 -2.125 4.625 -2 2 C-1.34 1.34 -0.68 0.68 0 0 Z " fill="#D2D3D5" transform="translate(514,422)"/>
<path d="M0 0 C0.66 0.33 1.32 0.66 2 1 C1.34 2.32 0.68 3.64 0 5 C-0.99 5 -1.98 5 -3 5 C-3.33 4.01 -3.66 3.02 -4 2 C-2.125 0.9375 -2.125 0.9375 0 0 Z " fill="#D4D5D7" transform="translate(508,392)"/>
<path d="M0 0 C1.32 1.32 2.64 2.64 4 4 C2.02 4.66 0.04 5.32 -2 6 C-1.34 4.02 -0.68 2.04 0 0 Z M3 1 C5 2 5 2 5 2 Z " fill="#DBDCDE" transform="translate(444,334)"/>
</svg>
